<?xml version="1.0" encoding="UTF-8" standalone="no"?>
<svg width="43px" height="32px" viewBox="0 0 43 32" version="1.1" xmlns="http://www.w3.org/2000/svg" xmlns:xlink="http://www.w3.org/1999/xlink" xmlns:sketch="http://www.bohemiancoding.com/sketch/ns">
    <g id="Page-1" stroke="none" stroke-width="1" fill="none" fill-rule="evenodd">
        <g sketch:type="MSLayerGroup" id="icon" fill="#C0C0C0">
            <path d="M34.9375,12 C34.9375,12.7373333 34.3368437,13.3333333 33.59375,13.3333333 L30.90625,13.3333333 C30.1631563,13.3333333 29.5625,12.7373333 29.5625,12 L29.5625,9.33333333 C29.5625,8.59733333 30.1631563,8 30.90625,8 L33.59375,8 C34.3368437,8 34.9375,8.59733333 34.9375,9.33333333 L34.9375,12 L34.9375,12 Z M34.9375,5.33333333 L29.5625,5.33333333 C28.079,5.33333333 26.875,6.528 26.875,8 L26.875,13.3333333 C26.875,14.8053333 28.079,16 29.5625,16 L34.9375,16 C36.421,16 37.625,14.8053333 37.625,13.3333333 L37.625,8 C37.625,6.528 36.421,5.33333333 34.9375,5.33333333 L34.9375,5.33333333 L34.9375,5.33333333 Z M40.3125,26.6666667 C40.3125,28.1386667 39.1085,29.3333333 37.625,29.3333333 L5.375,29.3333333 C3.8915,29.3333333 2.6875,28.1386667 2.6875,26.6666667 L2.6875,5.33333333 C2.6875,3.86133333 3.8915,2.66666667 5.375,2.66666667 L37.625,2.66666667 C39.1085,2.66666667 40.3125,3.86133333 40.3125,5.33333333 L40.3125,26.6666667 L40.3125,26.6666667 Z M37.625,0 L5.375,0 C2.40665625,0 0,2.388 0,5.33333333 L0,26.6666667 C0,29.612 2.40665625,32 5.375,32 L37.625,32 C40.5933438,32 43,29.612 43,26.6666667 L43,5.33333333 C43,2.388 40.5933438,0 37.625,0 L37.625,0 L37.625,0 Z M22.84375,24 L6.71875,24 C5.97565625,24 5.375,24.596 5.375,25.3333333 C5.375,26.0706667 5.97565625,26.6666667 6.71875,26.6666667 L22.84375,26.6666667 C23.5868437,26.6666667 24.1875,26.0706667 24.1875,25.3333333 C24.1875,24.596 23.5868437,24 22.84375,24 L22.84375,24 L22.84375,24 Z M22.84375,18.6666667 L6.71875,18.6666667 C5.97565625,18.6666667 5.375,19.264 5.375,20 C5.375,20.7373333 5.97565625,21.3333333 6.71875,21.3333333 L22.84375,21.3333333 C23.5868437,21.3333333 24.1875,20.7373333 24.1875,20 C24.1875,19.264 23.5868437,18.6666667 22.84375,18.6666667 L22.84375,18.6666667 L22.84375,18.6666667 Z"></path>
        </g>
    </g>
</svg>
