<?xml version="1.0" encoding="UTF-8" standalone="no"?>
<svg width="35px" height="32px" viewBox="0 0 35 32" version="1.1" xmlns="http://www.w3.org/2000/svg" xmlns:xlink="http://www.w3.org/1999/xlink">
    <g id="Page-1" stroke="none" stroke-width="1" fill="none" fill-rule="evenodd">
        <g id="icon" transform="translate(-128.000000, 0.000000)" fill="#5298FC">
            <path d="M129.000781,18.1995149 L143.850625,24.7176124 C145.162031,25.3222081 145.728594,25.3222081 147.150469,24.7176124 L161.999219,18.1995149 C162.732031,17.8651714 163,16.2959998 163,15.4510612 C162.045156,15.9178604 160.693281,16.583343 160.667031,16.5897521 L145.5,23.4176247 L130.332969,16.5897521 C130.385469,16.6207296 128.990938,16.0043838 128,15.4510612 C128,16.2778405 128.212188,17.790398 129.000781,18.1995149 L129.000781,18.1995149 Z M145.5,30.2465656 L130.332969,23.4176247 C130.385469,23.4496704 128.990938,22.8333246 128,22.280002 C128,23.1057132 128.212188,24.6182707 129.000781,25.0273876 L143.850625,31.5465532 C145.162031,32.1511489 145.728594,32.1511489 147.150469,31.5465532 L161.999219,25.0273876 C162.732031,24.6941122 163,23.1249406 163,22.280002 C162.045156,22.745733 160.693281,23.4122838 160.667031,23.4176247 L145.5,30.2465656 L145.5,30.2465656 Z M145.5,1.79317956 L160.667031,9.75974309 L145.5,16.0022474 L130.332969,9.75974309 L145.5,1.79317956 L145.5,1.79317956 Z M129.000781,11.3695059 L143.850625,17.8897397 C145.162031,18.4932673 145.728594,18.4932673 147.150469,17.8897397 L161.999219,11.3695059 C163.092969,10.8717292 163.129062,8.75564418 161.999219,8.14998026 L147.150469,0.493191923 C145.983438,-0.181904369 145.162031,-0.146654088 143.850625,0.493191923 L129.000781,8.14998026 C127.870937,8.86139502 127.834844,10.7659784 129.000781,11.3695059 L129.000781,11.3695059 Z M145.5,1.79317956 C145.609375,1.91815783 145.580938,1.81988432 145.5,1.79317956 L145.5,1.79317956 Z"></path>
        </g>
    </g>
</svg>
