<?xml version="1.0" encoding="UTF-8" standalone="no"?>
<svg width="32px" height="32px" viewBox="0 0 32 32" version="1.1" xmlns="http://www.w3.org/2000/svg" xmlns:xlink="http://www.w3.org/1999/xlink">
    <g id="Page-1" stroke="none" stroke-width="1" fill="none" fill-rule="evenodd">
        <g id="icon" transform="translate(0.000000, -111.000000)" fill="#C0C0C0">
            <path d="M30,139 C30,140.104 29.104,141 28,141 L4,141 C2.896,141 2,140.104 2,139 L2,115 C2,113.896 2.896,113 4,113 L28,113 C29.104,113 30,113.896 30,115 L30,139 L30,139 Z M28,111 L4,111 C1.791,111 0,112.791 0,115 L0,139 C0,141.209 1.791,143 4,143 L28,143 C30.209,143 32,141.209 32,139 L32,115 C32,112.791 30.209,111 28,111 L28,111 Z M25,137 L7,137 C6.448,137 6,137.448 6,138 C6,138.553 6.448,139 7,139 L25,139 C25.552,139 26,138.553 26,138 C26,137.448 25.552,137 25,137 L25,137 Z M15.224,134.686 C15.433,134.896 15.71,134.985 15.984,134.971 C16.258,134.985 16.536,134.896 16.745,134.686 L21.687,128.705 C22.079,128.312 22.079,127.675 21.687,127.281 C21.295,126.888 20.659,126.888 20.267,127.281 L17,131.235 L17,116 C17,115.448 16.552,115 16,115 C15.448,115 15,115.448 15,116 L15,131.272 L11.702,127.281 C11.31,126.888 10.674,126.888 10.282,127.281 C9.89,127.675 9.89,128.312 10.282,128.705 L15.224,134.686 L15.224,134.686 Z"></path>
        </g>
    </g>
</svg>
